<svg width="60" height="15" viewBox="0 0 60 15" fill="none" xmlns="http://www.w3.org/2000/svg">
<g id="Frame 1" clip-path="url(#clip0_0_1)">
<rect width="60" height="15" fill="white"/>
<path id="A" d="M5.73438 10.1523L5.9043 9.73047H7.3457L7.51562 10.1523H5.73438ZM5.40625 10.9961L5.57031 10.5742H7.67383L7.85547 10.9961H5.40625ZM5.07812 11.8398L5.24219 11.418H8.00781L8.18359 11.8398H5.07812ZM1.65039 13H1.19336L5.03125 3.29688H5.48828L9.32031 13H8.86914L5.25977 3.86523L1.65039 13ZM5.3125 4.86719L5.55273 5.40625L2.55273 13H2.10156L5.3125 4.86719ZM5.78125 5.98047L6.00391 6.56055L3.4668 13H3.00977L5.78125 5.98047ZM6.22656 7.14062L6.44922 7.73242L4.36914 13H3.91797L6.22656 7.14062ZM12.0449 13H11.5879L7.75586 3.29688H8.20703L12.0449 13ZM7.29883 3.29688L11.1367 13H10.6855L6.84766 3.29688H7.29883ZM6.39062 3.29688L10.2285 13H9.77148L5.93945 3.29688H6.39062Z" fill="black"/>
<path id="B" d="M19.9902 9.61914C19.9902 9.4668 19.9434 9.36523 19.8496 9.31445C19.7598 9.26367 19.627 9.23828 19.4512 9.23828H16.7324V8.81641H19.4512C20.0918 8.81641 20.4121 9.08398 20.4121 9.61914C20.4121 9.91992 20.3242 10.1367 20.1484 10.2695C19.9727 10.4023 19.7402 10.4688 19.4512 10.4688H16.7324V10.0469H19.4512C19.8105 10.0469 19.9902 9.9043 19.9902 9.61914ZM16.498 13H16.0762V5.82812H19.4512C19.7168 5.82812 19.9434 5.91016 20.1309 6.07422C20.3184 6.23438 20.4121 6.43555 20.4121 6.67773C20.4121 6.99805 20.3242 7.23047 20.1484 7.375C19.9727 7.51562 19.7402 7.58594 19.4512 7.58594H16.7324V7.16406H19.4512C19.8105 7.16406 19.9902 7.00195 19.9902 6.67773C19.9902 6.54492 19.9395 6.44141 19.8379 6.36719C19.7363 6.28906 19.6074 6.25 19.4512 6.25H16.498V13ZM16.7324 8.00781H19.4512C19.8379 8.00781 20.1641 7.89258 20.4297 7.66211C20.6992 7.42773 20.834 7.09961 20.834 6.67773C20.834 6.33789 20.6934 6.04102 20.4121 5.78711C20.1348 5.5332 19.8145 5.40625 19.4512 5.40625H15.6543V13H15.2324V4.98438H19.4512C19.9316 4.98438 20.3516 5.1543 20.7109 5.49414C21.0742 5.83008 21.2559 6.22461 21.2559 6.67773C21.2559 7.0332 21.1719 7.34375 21.0039 7.60938C20.8398 7.875 20.6172 8.08008 20.3359 8.22461C20.9492 8.44336 21.2559 8.88867 21.2559 9.56055C21.2559 10.0918 21.0801 10.5176 20.7285 10.8379C20.377 11.1543 19.9512 11.3125 19.4512 11.3125H16.7324V10.8906H19.4512C19.8379 10.8906 20.1641 10.7754 20.4297 10.5449C20.6992 10.3105 20.834 9.98242 20.834 9.56055C20.834 9.27539 20.7324 9.02344 20.5293 8.80469C20.3262 8.58594 20.0273 8.45898 19.6328 8.42383C19.5938 8.42773 19.5332 8.42969 19.4512 8.42969H16.7324V8.00781ZM22.0996 6.67773C22.0996 7.22461 21.9062 7.71875 21.5195 8.16016C21.9062 8.58984 22.0996 9.05664 22.0996 9.56055C22.0996 10.0488 21.9766 10.4941 21.7305 10.8965C21.4883 11.2949 21.1641 11.6055 20.7578 11.8281C20.3555 12.0469 19.9199 12.1562 19.4512 12.1562H16.7324V11.7344H19.4512C20.0605 11.7344 20.584 11.5312 21.0215 11.125C21.459 10.7148 21.6777 10.1934 21.6777 9.56055C21.6777 9.33398 21.6191 9.08398 21.502 8.81055C21.3887 8.5332 21.2305 8.32227 21.0273 8.17773C21.4609 7.77148 21.6777 7.27148 21.6777 6.67773C21.6777 6.10742 21.4551 5.61328 21.0098 5.19531C20.5645 4.77344 20.0449 4.5625 19.4512 4.5625H14.8105V13H14.3887V4.14062H19.4512C19.916 4.14062 20.3516 4.25586 20.7578 4.48633C21.168 4.71289 21.4941 5.02344 21.7363 5.41797C21.9785 5.80859 22.0996 6.22852 22.0996 6.67773ZM22 8.18359C22.3477 7.71875 22.5215 7.2168 22.5215 6.67773C22.5215 6.15039 22.3809 5.66016 22.0996 5.20703C21.8223 4.75 21.4473 4.38867 20.9746 4.12305C20.502 3.85352 19.9941 3.71875 19.4512 3.71875H13.9668V13H13.5449V3.29688H19.4512C20.0684 3.29688 20.6445 3.44922 21.1797 3.75391C21.7188 4.05859 22.1465 4.47266 22.4629 4.99609C22.7832 5.51562 22.9434 6.07617 22.9434 6.67773C22.9434 7.25195 22.7812 7.75586 22.457 8.18945C22.7812 8.63867 22.9434 9.0957 22.9434 9.56055C22.9434 10.084 22.8496 10.5645 22.6621 11.002C22.4746 11.4355 22.2207 11.7969 21.9004 12.0859C21.584 12.375 21.2148 12.5996 20.793 12.7598C20.3711 12.9199 19.9238 13 19.4512 13H16.7324V12.5781H19.4512C19.8613 12.5781 20.2539 12.502 20.6289 12.3496C21.0039 12.1934 21.3301 11.9824 21.6074 11.7168C21.8848 11.4512 22.1055 11.1309 22.2695 10.7559C22.4375 10.3809 22.5215 9.98242 22.5215 9.56055C22.5215 9.37305 22.4766 9.14844 22.3867 8.88672C22.3008 8.62109 22.1719 8.38672 22 8.18359Z" fill="black"/>
<path id="O" d="M28.9609 6.50781C28.5078 6.96094 28.2812 7.50781 28.2812 8.14844C28.2812 8.78906 28.5078 9.33594 28.9609 9.78906C29.4141 10.2422 29.9609 10.4688 30.6016 10.4688C31.2422 10.4688 31.7891 10.2422 32.2422 9.78906C32.6953 9.33594 32.9219 8.78906 32.9219 8.14844C32.9219 7.50781 32.6953 6.96094 32.2422 6.50781C31.7891 6.05469 31.2422 5.82812 30.6016 5.82812C29.9609 5.82812 29.4141 6.05469 28.9609 6.50781ZM28.0762 9.21484C27.9316 8.875 27.8594 8.51953 27.8594 8.14844C27.8594 7.77734 27.9316 7.42383 28.0762 7.08789C28.2207 6.74805 28.416 6.45508 28.6621 6.20898C28.9082 5.96289 29.1992 5.76758 29.5352 5.62305C29.875 5.47852 30.2305 5.40625 30.6016 5.40625C30.9727 5.40625 31.3262 5.47852 31.6621 5.62305C32.002 5.76758 32.2949 5.96289 32.541 6.20898C32.7871 6.45508 32.9824 6.74805 33.127 7.08789C33.2715 7.42383 33.3438 7.77734 33.3438 8.14844C33.3438 8.51953 33.2715 8.875 33.127 9.21484C32.9824 9.55078 32.7871 9.8418 32.541 10.0879C32.2949 10.334 32.002 10.5293 31.6621 10.6738C31.3262 10.8184 30.9727 10.8906 30.6016 10.8906C30.2305 10.8906 29.875 10.8184 29.5352 10.6738C29.1992 10.5293 28.9082 10.334 28.6621 10.0879C28.416 9.8418 28.2207 9.55078 28.0762 9.21484ZM27.8594 6.56055C27.5781 7.04492 27.4375 7.57422 27.4375 8.14844C27.4375 8.72266 27.5781 9.25195 27.8594 9.73633C28.1445 10.2207 28.5293 10.6055 29.0137 10.8906C29.498 11.1719 30.0273 11.3125 30.6016 11.3125C31.1758 11.3125 31.7051 11.1719 32.1895 10.8906C32.6738 10.6055 33.0566 10.2207 33.3379 9.73633C33.623 9.25195 33.7656 8.72266 33.7656 8.14844C33.7656 7.57422 33.623 7.04492 33.3379 6.56055C33.0566 6.07617 32.6738 5.69336 32.1895 5.41211C31.7051 5.12695 31.1758 4.98438 30.6016 4.98438C30.0273 4.98438 29.498 5.12695 29.0137 5.41211C28.5293 5.69336 28.1445 6.07617 27.8594 6.56055ZM27.4961 9.94727C27.1758 9.39648 27.0156 8.79688 27.0156 8.14844C27.0156 7.5 27.1758 6.90039 27.4961 6.34961C27.8164 5.79883 28.252 5.36328 28.8027 5.04297C29.3535 4.72266 29.9531 4.5625 30.6016 4.5625C31.25 4.5625 31.8496 4.72266 32.4004 5.04297C32.9512 5.36328 33.3867 5.79883 33.707 6.34961C34.0273 6.90039 34.1875 7.5 34.1875 8.14844C34.1875 8.79688 34.0273 9.39648 33.707 9.94727C33.3867 10.498 32.9512 10.9336 32.4004 11.2539C31.8496 11.5742 31.25 11.7344 30.6016 11.7344C29.9531 11.7344 29.3535 11.5742 28.8027 11.2539C28.252 10.9336 27.8164 10.498 27.4961 9.94727ZM26.9102 6.58984C26.6992 7.08594 26.5938 7.60547 26.5938 8.14844C26.5938 8.69141 26.6992 9.21094 26.9102 9.70703C27.1211 10.2031 27.4043 10.6309 27.7598 10.9902C28.1191 11.3457 28.5469 11.6289 29.043 11.8398C29.5391 12.0508 30.0586 12.1562 30.6016 12.1562C31.1445 12.1562 31.6641 12.0508 32.1602 11.8398C32.6562 11.6289 33.082 11.3457 33.4375 10.9902C33.7969 10.6309 34.082 10.2031 34.293 9.70703C34.5039 9.21094 34.6094 8.69141 34.6094 8.14844C34.6094 7.60547 34.5039 7.08594 34.293 6.58984C34.082 6.09375 33.7969 5.66797 33.4375 5.3125C33.082 4.95312 32.6562 4.66797 32.1602 4.45703C31.6641 4.24609 31.1445 4.14062 30.6016 4.14062C30.0586 4.14062 29.5391 4.24609 29.043 4.45703C28.5469 4.66797 28.1191 4.95312 27.7598 5.3125C27.4043 5.66797 27.1211 6.09375 26.9102 6.58984ZM26.7637 10.3691C26.3691 9.68945 26.1719 8.94922 26.1719 8.14844C26.1719 7.34766 26.3691 6.60742 26.7637 5.92773C27.1621 5.24805 27.7012 4.71094 28.3809 4.31641C29.0605 3.91797 29.8008 3.71875 30.6016 3.71875C31.4023 3.71875 32.1426 3.91797 32.8223 4.31641C33.502 4.71094 34.0391 5.24805 34.4336 5.92773C34.832 6.60742 35.0312 7.34766 35.0312 8.14844C35.0312 8.94922 34.832 9.68945 34.4336 10.3691C34.0391 11.0488 33.502 11.5879 32.8223 11.9863C32.1426 12.3809 31.4023 12.5781 30.6016 12.5781C29.8008 12.5781 29.0605 12.3809 28.3809 11.9863C27.7012 11.5879 27.1621 11.0488 26.7637 10.3691ZM26.1309 6.26758C25.877 6.86523 25.75 7.49219 25.75 8.14844C25.75 8.80469 25.877 9.43359 26.1309 10.0352C26.3887 10.6328 26.7344 11.1484 27.168 11.582C27.6016 12.0156 28.1172 12.3613 28.7148 12.6191C29.3164 12.873 29.9453 13 30.6016 13C31.2578 13 31.8848 12.873 32.4824 12.6191C33.084 12.3613 33.6016 12.0156 34.0352 11.582C34.4688 11.1484 34.8125 10.6328 35.0664 10.0352C35.3242 9.43359 35.4531 8.80469 35.4531 8.14844C35.4531 7.49219 35.3242 6.86523 35.0664 6.26758C34.8125 5.66602 34.4688 5.14844 34.0352 4.71484C33.6016 4.28125 33.084 3.9375 32.4824 3.68359C31.8848 3.42578 31.2578 3.29688 30.6016 3.29688C29.9453 3.29688 29.3164 3.42578 28.7148 3.68359C28.1172 3.9375 27.6016 4.28125 27.168 4.71484C26.7344 5.14844 26.3887 5.66602 26.1309 6.26758ZM25.7441 10.1992C25.4668 9.54688 25.3281 8.86328 25.3281 8.14844C25.3281 7.43359 25.4668 6.75195 25.7441 6.10352C26.0254 5.45117 26.4004 4.89062 26.8691 4.42188C27.3418 3.94922 27.9023 3.57422 28.5508 3.29688C29.2031 3.01562 29.8867 2.875 30.6016 2.875C31.3164 2.875 31.998 3.01562 32.6465 3.29688C33.2988 3.57422 33.8594 3.94922 34.3281 4.42188C34.8008 4.89062 35.1758 5.45117 35.4531 6.10352C35.7344 6.75195 35.875 7.43359 35.875 8.14844C35.875 8.86328 35.7344 9.54688 35.4531 10.1992C35.1758 10.8477 34.8008 11.4082 34.3281 11.8809C33.8594 12.3496 33.2988 12.7227 32.6465 13C31.998 13.2812 31.3164 13.4219 30.6016 13.4219C29.8867 13.4219 29.2031 13.2812 28.5508 13C27.9023 12.7227 27.3418 12.3496 26.8691 11.8809C26.4004 11.4082 26.0254 10.8477 25.7441 10.1992Z" fill="black"/>
<path id="U" d="M44.377 8.73438V3.29688H44.7988V8.73438C44.7988 9.32812 44.5645 9.83594 44.0957 10.2578C43.627 10.6797 43.0645 10.8906 42.4082 10.8906C41.752 10.8906 41.1895 10.6797 40.7207 10.2578C40.252 9.83594 40.0176 9.32812 40.0176 8.73438V3.29688H40.4395V8.73438C40.4395 9.21094 40.6309 9.61914 41.0137 9.95898C41.4004 10.2988 41.8652 10.4688 42.4082 10.4688C42.9512 10.4688 43.4141 10.2988 43.7969 9.95898C44.1836 9.61914 44.377 9.21094 44.377 8.73438ZM45.2207 8.73438V3.29688H45.6426V8.73438C45.6426 9.14062 45.5566 9.5293 45.3848 9.90039C45.2129 10.2676 44.9824 10.5859 44.6934 10.8555C44.4043 11.125 44.0605 11.3398 43.6621 11.5C43.2637 11.6562 42.8457 11.7344 42.4082 11.7344C41.9707 11.7344 41.5527 11.6562 41.1543 11.5C40.7559 11.3398 40.4121 11.125 40.123 10.8555C39.834 10.5859 39.6035 10.2676 39.4316 9.90039C39.2598 9.5293 39.1738 9.14062 39.1738 8.73438V3.29688H39.5957V8.73438C39.5957 9.19922 39.7207 9.63086 39.9707 10.0293C40.2246 10.4238 40.5664 10.7363 40.9961 10.9668C41.4297 11.1973 41.9004 11.3125 42.4082 11.3125C42.916 11.3125 43.3848 11.1973 43.8145 10.9668C44.248 10.7363 44.5898 10.4238 44.8398 10.0293C45.0938 9.63086 45.2207 9.19922 45.2207 8.73438ZM46.0645 8.73438V3.29688H46.4863V8.73438C46.4863 9.25391 46.377 9.75195 46.1582 10.2285C45.9434 10.7012 45.6543 11.1094 45.291 11.4531C44.9277 11.7969 44.4941 12.0703 43.9902 12.2734C43.4863 12.4766 42.959 12.5781 42.4082 12.5781C41.8574 12.5781 41.3301 12.4766 40.8262 12.2734C40.3223 12.0703 39.8887 11.7969 39.5254 11.4531C39.1621 11.1094 38.8711 10.7012 38.6523 10.2285C38.4375 9.75195 38.3301 9.25391 38.3301 8.73438V3.29688H38.752V8.73438C38.752 9.35156 38.916 9.92383 39.2441 10.4512C39.5723 10.9746 40.0156 11.3906 40.5742 11.6992C41.1367 12.0039 41.748 12.1562 42.4082 12.1562C43.0684 12.1562 43.6777 12.0039 44.2363 11.6992C44.7988 11.3906 45.2441 10.9746 45.5723 10.4512C45.9004 9.92383 46.0645 9.35156 46.0645 8.73438ZM46.9082 8.73438V3.29688H47.3301V8.73438C47.3301 9.57812 47.1094 10.3613 46.668 11.084C46.2266 11.8027 45.627 12.373 44.8691 12.7949C44.1152 13.2129 43.2949 13.4219 42.4082 13.4219C41.5215 13.4219 40.6992 13.2129 39.9414 12.7949C39.1875 12.373 38.5898 11.8027 38.1484 11.084C37.707 10.3613 37.4863 9.57812 37.4863 8.73438V3.29688H37.9082V8.73438C37.9082 9.30859 38.0273 9.85938 38.2656 10.3867C38.5039 10.9141 38.8242 11.3691 39.2266 11.752C39.6289 12.1309 40.1074 12.4336 40.6621 12.6602C41.2207 12.8867 41.8027 13 42.4082 13C43.0137 13 43.5938 12.8867 44.1484 12.6602C44.707 12.4336 45.1875 12.1309 45.5898 11.752C45.9922 11.3691 46.3125 10.9141 46.5508 10.3867C46.7891 9.85938 46.9082 9.30859 46.9082 8.73438Z" fill="black"/>
<path id="T" d="M50.3574 3.71875V3.29688H56.6855V3.71875H50.3574ZM50.3574 4.5625V4.14062H56.6855V4.5625H50.3574ZM50.3574 5.40625V4.98438H56.6855V5.40625H54.998V13H54.5762V5.40625H54.1543V13H53.7324V5.40625H53.3105V13H52.8887V5.40625H52.4668V13H52.0449V5.40625H50.3574Z" fill="black"/>
</g>
<defs>
<clipPath id="clip0_0_1">
<rect width="60" height="15" fill="white"/>
</clipPath>
</defs>
</svg>
