<svg width="78" height="15" viewBox="0 0 78 15" fill="none" xmlns="http://www.w3.org/2000/svg">
<g id="Frame 1" clip-path="url(#clip0_0_1)">
<rect width="78" height="15" fill="white"/>
<path id="A" d="M8.86914 6.61328L8.52344 6.8418C8.3125 6.5293 8.03711 6.2832 7.69727 6.10352C7.36133 5.91992 6.99609 5.82812 6.60156 5.82812C5.96094 5.82812 5.41406 6.05469 4.96094 6.50781C4.50781 6.96094 4.28125 7.50781 4.28125 8.14844C4.28125 8.78906 4.50781 9.33594 4.96094 9.78906C5.41406 10.2422 5.96094 10.4688 6.60156 10.4688C6.99609 10.4688 7.36133 10.377 7.69727 10.1934C8.03711 10.0098 8.3125 9.76172 8.52344 9.44922L8.86328 9.69531C8.61328 10.0625 8.28906 10.3535 7.89062 10.5684C7.49219 10.7832 7.0625 10.8906 6.60156 10.8906C6.23047 10.8906 5.875 10.8184 5.53516 10.6738C5.19922 10.5293 4.9082 10.334 4.66211 10.0879C4.41602 9.8418 4.2207 9.55078 4.07617 9.21484C3.93164 8.875 3.85938 8.51953 3.85938 8.14844C3.85938 7.77734 3.93164 7.42383 4.07617 7.08789C4.2207 6.74805 4.41602 6.45508 4.66211 6.20898C4.9082 5.96289 5.19922 5.76758 5.53516 5.62305C5.875 5.47852 6.23047 5.40625 6.60156 5.40625C7.06641 5.40625 7.49805 5.51562 7.89648 5.73438C8.29492 5.94922 8.61914 6.24219 8.86914 6.61328ZM9.56641 6.13281L9.21484 6.36133C8.92578 5.93945 8.55078 5.60547 8.08984 5.35938C7.63281 5.10938 7.13672 4.98438 6.60156 4.98438C6.02734 4.98438 5.49805 5.12695 5.01367 5.41211C4.5293 5.69336 4.14453 6.07617 3.85938 6.56055C3.57812 7.04492 3.4375 7.57422 3.4375 8.14844C3.4375 8.72266 3.57812 9.25195 3.85938 9.73633C4.14453 10.2207 4.5293 10.6055 5.01367 10.8906C5.49805 11.1719 6.02734 11.3125 6.60156 11.3125C7.13672 11.3125 7.63477 11.1875 8.0957 10.9375C8.55664 10.6875 8.93164 10.3496 9.2207 9.92383L9.56641 10.1641C9.23828 10.6484 8.8125 11.0312 8.28906 11.3125C7.76953 11.5938 7.20703 11.7344 6.60156 11.7344C5.95312 11.7344 5.35352 11.5742 4.80273 11.2539C4.25195 10.9336 3.81641 10.498 3.49609 9.94727C3.17578 9.39648 3.01562 8.79688 3.01562 8.14844C3.01562 7.5 3.17578 6.90039 3.49609 6.34961C3.81641 5.79883 4.25195 5.36328 4.80273 5.04297C5.35352 4.72266 5.95312 4.5625 6.60156 4.5625C7.20703 4.5625 7.76953 4.70312 8.28906 4.98438C8.8125 5.26562 9.23828 5.64844 9.56641 6.13281ZM10.2695 5.66406L9.91797 5.89258C9.55078 5.35352 9.07422 4.92773 8.48828 4.61523C7.90625 4.29883 7.27734 4.14062 6.60156 4.14062C6.05859 4.14062 5.53906 4.24609 5.04297 4.45703C4.54688 4.66797 4.11914 4.95312 3.75977 5.3125C3.4043 5.66797 3.12109 6.09375 2.91016 6.58984C2.69922 7.08594 2.59375 7.60547 2.59375 8.14844C2.59375 8.69141 2.69922 9.21094 2.91016 9.70703C3.12109 10.2031 3.4043 10.6309 3.75977 10.9902C4.11914 11.3457 4.54688 11.6289 5.04297 11.8398C5.53906 12.0508 6.05859 12.1562 6.60156 12.1562C7.28125 12.1562 7.91211 11.998 8.49414 11.6816C9.07617 11.3652 9.55078 10.9375 9.91797 10.3984L10.2578 10.6504C9.85156 11.2441 9.32617 11.7148 8.68164 12.0625C8.04102 12.4062 7.34766 12.5781 6.60156 12.5781C5.80078 12.5781 5.06055 12.3809 4.38086 11.9863C3.70117 11.5879 3.16211 11.0488 2.76367 10.3691C2.36914 9.68945 2.17188 8.94922 2.17188 8.14844C2.17188 7.34766 2.36914 6.60742 2.76367 5.92773C3.16211 5.24805 3.70117 4.71094 4.38086 4.31641C5.06055 3.91797 5.80078 3.71875 6.60156 3.71875C7.35156 3.71875 8.04883 3.89453 8.69336 4.24609C9.33789 4.59375 9.86328 5.06641 10.2695 5.66406ZM10.9609 5.18359L10.6094 5.41211C10.1641 4.75977 9.58789 4.24414 8.88086 3.86523C8.17773 3.48633 7.41797 3.29688 6.60156 3.29688C5.94531 3.29688 5.31641 3.42578 4.71484 3.68359C4.11719 3.9375 3.60156 4.28125 3.16797 4.71484C2.73438 5.14844 2.38867 5.66602 2.13086 6.26758C1.87695 6.86523 1.75 7.49219 1.75 8.14844C1.75 8.80469 1.87695 9.43359 2.13086 10.0352C2.38867 10.6328 2.73438 11.1484 3.16797 11.582C3.60156 12.0156 4.11719 12.3613 4.71484 12.6191C5.31641 12.873 5.94531 13 6.60156 13C7.41797 13 8.17969 12.8086 8.88672 12.4258C9.59375 12.043 10.1699 11.5254 10.6152 10.873L10.9551 11.1309C10.4707 11.834 9.8457 12.3926 9.08008 12.8066C8.31445 13.2168 7.48828 13.4219 6.60156 13.4219C5.88672 13.4219 5.20312 13.2812 4.55078 13C3.90234 12.7227 3.3418 12.3496 2.86914 11.8809C2.40039 11.4082 2.02539 10.8477 1.74414 10.1992C1.4668 9.54688 1.32812 8.86328 1.32812 8.14844C1.32812 7.43359 1.4668 6.75195 1.74414 6.10352C2.02539 5.45117 2.40039 4.89062 2.86914 4.42188C3.3418 3.94922 3.90234 3.57422 4.55078 3.29688C5.20312 3.01562 5.88672 2.875 6.60156 2.875C7.49219 2.875 8.32031 3.08203 9.08594 3.49609C9.85156 3.91016 10.4766 4.47266 10.9609 5.18359Z" fill="black"/>
<path id="O" d="M15.9609 6.50781C15.5078 6.96094 15.2812 7.50781 15.2812 8.14844C15.2812 8.78906 15.5078 9.33594 15.9609 9.78906C16.4141 10.2422 16.9609 10.4688 17.6016 10.4688C18.2422 10.4688 18.7891 10.2422 19.2422 9.78906C19.6953 9.33594 19.9219 8.78906 19.9219 8.14844C19.9219 7.50781 19.6953 6.96094 19.2422 6.50781C18.7891 6.05469 18.2422 5.82812 17.6016 5.82812C16.9609 5.82812 16.4141 6.05469 15.9609 6.50781ZM15.0762 9.21484C14.9316 8.875 14.8594 8.51953 14.8594 8.14844C14.8594 7.77734 14.9316 7.42383 15.0762 7.08789C15.2207 6.74805 15.416 6.45508 15.6621 6.20898C15.9082 5.96289 16.1992 5.76758 16.5352 5.62305C16.875 5.47852 17.2305 5.40625 17.6016 5.40625C17.9727 5.40625 18.3262 5.47852 18.6621 5.62305C19.002 5.76758 19.2949 5.96289 19.541 6.20898C19.7871 6.45508 19.9824 6.74805 20.127 7.08789C20.2715 7.42383 20.3438 7.77734 20.3438 8.14844C20.3438 8.51953 20.2715 8.875 20.127 9.21484C19.9824 9.55078 19.7871 9.8418 19.541 10.0879C19.2949 10.334 19.002 10.5293 18.6621 10.6738C18.3262 10.8184 17.9727 10.8906 17.6016 10.8906C17.2305 10.8906 16.875 10.8184 16.5352 10.6738C16.1992 10.5293 15.9082 10.334 15.6621 10.0879C15.416 9.8418 15.2207 9.55078 15.0762 9.21484ZM14.8594 6.56055C14.5781 7.04492 14.4375 7.57422 14.4375 8.14844C14.4375 8.72266 14.5781 9.25195 14.8594 9.73633C15.1445 10.2207 15.5293 10.6055 16.0137 10.8906C16.498 11.1719 17.0273 11.3125 17.6016 11.3125C18.1758 11.3125 18.7051 11.1719 19.1895 10.8906C19.6738 10.6055 20.0566 10.2207 20.3379 9.73633C20.623 9.25195 20.7656 8.72266 20.7656 8.14844C20.7656 7.57422 20.623 7.04492 20.3379 6.56055C20.0566 6.07617 19.6738 5.69336 19.1895 5.41211C18.7051 5.12695 18.1758 4.98438 17.6016 4.98438C17.0273 4.98438 16.498 5.12695 16.0137 5.41211C15.5293 5.69336 15.1445 6.07617 14.8594 6.56055ZM14.4961 9.94727C14.1758 9.39648 14.0156 8.79688 14.0156 8.14844C14.0156 7.5 14.1758 6.90039 14.4961 6.34961C14.8164 5.79883 15.252 5.36328 15.8027 5.04297C16.3535 4.72266 16.9531 4.5625 17.6016 4.5625C18.25 4.5625 18.8496 4.72266 19.4004 5.04297C19.9512 5.36328 20.3867 5.79883 20.707 6.34961C21.0273 6.90039 21.1875 7.5 21.1875 8.14844C21.1875 8.79688 21.0273 9.39648 20.707 9.94727C20.3867 10.498 19.9512 10.9336 19.4004 11.2539C18.8496 11.5742 18.25 11.7344 17.6016 11.7344C16.9531 11.7344 16.3535 11.5742 15.8027 11.2539C15.252 10.9336 14.8164 10.498 14.4961 9.94727ZM13.9102 6.58984C13.6992 7.08594 13.5938 7.60547 13.5938 8.14844C13.5938 8.69141 13.6992 9.21094 13.9102 9.70703C14.1211 10.2031 14.4043 10.6309 14.7598 10.9902C15.1191 11.3457 15.5469 11.6289 16.043 11.8398C16.5391 12.0508 17.0586 12.1562 17.6016 12.1562C18.1445 12.1562 18.6641 12.0508 19.1602 11.8398C19.6562 11.6289 20.082 11.3457 20.4375 10.9902C20.7969 10.6309 21.082 10.2031 21.293 9.70703C21.5039 9.21094 21.6094 8.69141 21.6094 8.14844C21.6094 7.60547 21.5039 7.08594 21.293 6.58984C21.082 6.09375 20.7969 5.66797 20.4375 5.3125C20.082 4.95312 19.6562 4.66797 19.1602 4.45703C18.6641 4.24609 18.1445 4.14062 17.6016 4.14062C17.0586 4.14062 16.5391 4.24609 16.043 4.45703C15.5469 4.66797 15.1191 4.95312 14.7598 5.3125C14.4043 5.66797 14.1211 6.09375 13.9102 6.58984ZM13.7637 10.3691C13.3691 9.68945 13.1719 8.94922 13.1719 8.14844C13.1719 7.34766 13.3691 6.60742 13.7637 5.92773C14.1621 5.24805 14.7012 4.71094 15.3809 4.31641C16.0605 3.91797 16.8008 3.71875 17.6016 3.71875C18.4023 3.71875 19.1426 3.91797 19.8223 4.31641C20.502 4.71094 21.0391 5.24805 21.4336 5.92773C21.832 6.60742 22.0312 7.34766 22.0312 8.14844C22.0312 8.94922 21.832 9.68945 21.4336 10.3691C21.0391 11.0488 20.502 11.5879 19.8223 11.9863C19.1426 12.3809 18.4023 12.5781 17.6016 12.5781C16.8008 12.5781 16.0605 12.3809 15.3809 11.9863C14.7012 11.5879 14.1621 11.0488 13.7637 10.3691ZM13.1309 6.26758C12.877 6.86523 12.75 7.49219 12.75 8.14844C12.75 8.80469 12.877 9.43359 13.1309 10.0352C13.3887 10.6328 13.7344 11.1484 14.168 11.582C14.6016 12.0156 15.1172 12.3613 15.7148 12.6191C16.3164 12.873 16.9453 13 17.6016 13C18.2578 13 18.8848 12.873 19.4824 12.6191C20.084 12.3613 20.6016 12.0156 21.0352 11.582C21.4688 11.1484 21.8125 10.6328 22.0664 10.0352C22.3242 9.43359 22.4531 8.80469 22.4531 8.14844C22.4531 7.49219 22.3242 6.86523 22.0664 6.26758C21.8125 5.66602 21.4688 5.14844 21.0352 4.71484C20.6016 4.28125 20.084 3.9375 19.4824 3.68359C18.8848 3.42578 18.2578 3.29688 17.6016 3.29688C16.9453 3.29688 16.3164 3.42578 15.7148 3.68359C15.1172 3.9375 14.6016 4.28125 14.168 4.71484C13.7344 5.14844 13.3887 5.66602 13.1309 6.26758ZM12.7441 10.1992C12.4668 9.54688 12.3281 8.86328 12.3281 8.14844C12.3281 7.43359 12.4668 6.75195 12.7441 6.10352C13.0254 5.45117 13.4004 4.89062 13.8691 4.42188C14.3418 3.94922 14.9023 3.57422 15.5508 3.29688C16.2031 3.01562 16.8867 2.875 17.6016 2.875C18.3164 2.875 18.998 3.01562 19.6465 3.29688C20.2988 3.57422 20.8594 3.94922 21.3281 4.42188C21.8008 4.89062 22.1758 5.45117 22.4531 6.10352C22.7344 6.75195 22.875 7.43359 22.875 8.14844C22.875 8.86328 22.7344 9.54688 22.4531 10.1992C22.1758 10.8477 21.8008 11.4082 21.3281 11.8809C20.8594 12.3496 20.2988 12.7227 19.6465 13C18.998 13.2812 18.3164 13.4219 17.6016 13.4219C16.8867 13.4219 16.2031 13.2812 15.5508 13C14.9023 12.7227 14.3418 12.3496 13.8691 11.8809C13.4004 11.4082 13.0254 10.8477 12.7441 10.1992Z" fill="black"/>
<path id="N" d="M31.4355 8.33008L31.0137 7.63281V3.29688H31.4355V8.33008ZM32.2793 9.71289L31.8574 9.00391V3.29688H32.2793V9.71289ZM33.123 11.1133L32.7012 10.3984V3.29688H33.123V11.1133ZM27.0762 7.9668L27.498 8.66406V13H27.0762V7.9668ZM26.2324 6.58398L26.6543 7.29297V13H26.2324V6.58398ZM25.3887 5.18359L25.8105 5.89844V13H25.3887V5.18359ZM25.5352 3.29688H26.0273L31.9922 13H31.5L25.5352 3.29688ZM26.5312 3.29688H27.0293L32.9883 13H32.4844L26.5312 3.29688ZM27.5215 3.29688H28.0137L33.5449 12.3145V3.29688H33.9668V13C33.9668 13 33.8008 13 33.4688 13L27.5215 3.29688ZM24.9668 3.98242V13H24.5449V3.29688C24.5449 3.29688 24.7129 3.29688 25.0488 3.29688L30.9961 13H30.5098L24.9668 3.98242Z" fill="black"/>
<path id="T" d="M36.3574 3.71875V3.29688H42.6855V3.71875H36.3574ZM36.3574 4.5625V4.14062H42.6855V4.5625H36.3574ZM36.3574 5.40625V4.98438H42.6855V5.40625H40.998V13H40.5762V5.40625H40.1543V13H39.7324V5.40625H39.3105V13H38.8887V5.40625H38.4668V13H38.0449V5.40625H36.3574Z" fill="black"/>
<path id="A_2" d="M48.7344 10.1523L48.9043 9.73047H50.3457L50.5156 10.1523H48.7344ZM48.4062 10.9961L48.5703 10.5742H50.6738L50.8555 10.9961H48.4062ZM48.0781 11.8398L48.2422 11.418H51.0078L51.1836 11.8398H48.0781ZM44.6504 13H44.1934L48.0312 3.29688H48.4883L52.3203 13H51.8691L48.2598 3.86523L44.6504 13ZM48.3125 4.86719L48.5527 5.40625L45.5527 13H45.1016L48.3125 4.86719ZM48.7812 5.98047L49.0039 6.56055L46.4668 13H46.0098L48.7812 5.98047ZM49.2266 7.14062L49.4492 7.73242L47.3691 13H46.918L49.2266 7.14062ZM55.0449 13H54.5879L50.7559 3.29688H51.207L55.0449 13ZM50.2988 3.29688L54.1367 13H53.6855L49.8477 3.29688H50.2988ZM49.3906 3.29688L53.2285 13H52.7715L48.9395 3.29688H49.3906Z" fill="black"/>
<path id="C" d="M64.8691 6.61328L64.5234 6.8418C64.3125 6.5293 64.0371 6.2832 63.6973 6.10352C63.3613 5.91992 62.9961 5.82812 62.6016 5.82812C61.9609 5.82812 61.4141 6.05469 60.9609 6.50781C60.5078 6.96094 60.2812 7.50781 60.2812 8.14844C60.2812 8.78906 60.5078 9.33594 60.9609 9.78906C61.4141 10.2422 61.9609 10.4688 62.6016 10.4688C62.9961 10.4688 63.3613 10.377 63.6973 10.1934C64.0371 10.0098 64.3125 9.76172 64.5234 9.44922L64.8633 9.69531C64.6133 10.0625 64.2891 10.3535 63.8906 10.5684C63.4922 10.7832 63.0625 10.8906 62.6016 10.8906C62.2305 10.8906 61.875 10.8184 61.5352 10.6738C61.1992 10.5293 60.9082 10.334 60.6621 10.0879C60.416 9.8418 60.2207 9.55078 60.0762 9.21484C59.9316 8.875 59.8594 8.51953 59.8594 8.14844C59.8594 7.77734 59.9316 7.42383 60.0762 7.08789C60.2207 6.74805 60.416 6.45508 60.6621 6.20898C60.9082 5.96289 61.1992 5.76758 61.5352 5.62305C61.875 5.47852 62.2305 5.40625 62.6016 5.40625C63.0664 5.40625 63.498 5.51562 63.8965 5.73438C64.2949 5.94922 64.6191 6.24219 64.8691 6.61328ZM65.5664 6.13281L65.2148 6.36133C64.9258 5.93945 64.5508 5.60547 64.0898 5.35938C63.6328 5.10938 63.1367 4.98438 62.6016 4.98438C62.0273 4.98438 61.498 5.12695 61.0137 5.41211C60.5293 5.69336 60.1445 6.07617 59.8594 6.56055C59.5781 7.04492 59.4375 7.57422 59.4375 8.14844C59.4375 8.72266 59.5781 9.25195 59.8594 9.73633C60.1445 10.2207 60.5293 10.6055 61.0137 10.8906C61.498 11.1719 62.0273 11.3125 62.6016 11.3125C63.1367 11.3125 63.6348 11.1875 64.0957 10.9375C64.5566 10.6875 64.9316 10.3496 65.2207 9.92383L65.5664 10.1641C65.2383 10.6484 64.8125 11.0312 64.2891 11.3125C63.7695 11.5938 63.207 11.7344 62.6016 11.7344C61.9531 11.7344 61.3535 11.5742 60.8027 11.2539C60.252 10.9336 59.8164 10.498 59.4961 9.94727C59.1758 9.39648 59.0156 8.79688 59.0156 8.14844C59.0156 7.5 59.1758 6.90039 59.4961 6.34961C59.8164 5.79883 60.252 5.36328 60.8027 5.04297C61.3535 4.72266 61.9531 4.5625 62.6016 4.5625C63.207 4.5625 63.7695 4.70312 64.2891 4.98438C64.8125 5.26562 65.2383 5.64844 65.5664 6.13281ZM66.2695 5.66406L65.918 5.89258C65.5508 5.35352 65.0742 4.92773 64.4883 4.61523C63.9062 4.29883 63.2773 4.14062 62.6016 4.14062C62.0586 4.14062 61.5391 4.24609 61.043 4.45703C60.5469 4.66797 60.1191 4.95312 59.7598 5.3125C59.4043 5.66797 59.1211 6.09375 58.9102 6.58984C58.6992 7.08594 58.5938 7.60547 58.5938 8.14844C58.5938 8.69141 58.6992 9.21094 58.9102 9.70703C59.1211 10.2031 59.4043 10.6309 59.7598 10.9902C60.1191 11.3457 60.5469 11.6289 61.043 11.8398C61.5391 12.0508 62.0586 12.1562 62.6016 12.1562C63.2812 12.1562 63.9121 11.998 64.4941 11.6816C65.0762 11.3652 65.5508 10.9375 65.918 10.3984L66.2578 10.6504C65.8516 11.2441 65.3262 11.7148 64.6816 12.0625C64.041 12.4062 63.3477 12.5781 62.6016 12.5781C61.8008 12.5781 61.0605 12.3809 60.3809 11.9863C59.7012 11.5879 59.1621 11.0488 58.7637 10.3691C58.3691 9.68945 58.1719 8.94922 58.1719 8.14844C58.1719 7.34766 58.3691 6.60742 58.7637 5.92773C59.1621 5.24805 59.7012 4.71094 60.3809 4.31641C61.0605 3.91797 61.8008 3.71875 62.6016 3.71875C63.3516 3.71875 64.0488 3.89453 64.6934 4.24609C65.3379 4.59375 65.8633 5.06641 66.2695 5.66406ZM66.9609 5.18359L66.6094 5.41211C66.1641 4.75977 65.5879 4.24414 64.8809 3.86523C64.1777 3.48633 63.418 3.29688 62.6016 3.29688C61.9453 3.29688 61.3164 3.42578 60.7148 3.68359C60.1172 3.9375 59.6016 4.28125 59.168 4.71484C58.7344 5.14844 58.3887 5.66602 58.1309 6.26758C57.877 6.86523 57.75 7.49219 57.75 8.14844C57.75 8.80469 57.877 9.43359 58.1309 10.0352C58.3887 10.6328 58.7344 11.1484 59.168 11.582C59.6016 12.0156 60.1172 12.3613 60.7148 12.6191C61.3164 12.873 61.9453 13 62.6016 13C63.418 13 64.1797 12.8086 64.8867 12.4258C65.5938 12.043 66.1699 11.5254 66.6152 10.873L66.9551 11.1309C66.4707 11.834 65.8457 12.3926 65.0801 12.8066C64.3145 13.2168 63.4883 13.4219 62.6016 13.4219C61.8867 13.4219 61.2031 13.2812 60.5508 13C59.9023 12.7227 59.3418 12.3496 58.8691 11.8809C58.4004 11.4082 58.0254 10.8477 57.7441 10.1992C57.4668 9.54688 57.3281 8.86328 57.3281 8.14844C57.3281 7.43359 57.4668 6.75195 57.7441 6.10352C58.0254 5.45117 58.4004 4.89062 58.8691 4.42188C59.3418 3.94922 59.9023 3.57422 60.5508 3.29688C61.2031 3.01562 61.8867 2.875 62.6016 2.875C63.4922 2.875 64.3203 3.08203 65.0859 3.49609C65.8516 3.91016 66.4766 4.47266 66.9609 5.18359Z" fill="black"/>
<path id="T_2" d="M69.3574 3.71875V3.29688H75.6855V3.71875H69.3574ZM69.3574 4.5625V4.14062H75.6855V4.5625H69.3574ZM69.3574 5.40625V4.98438H75.6855V5.40625H73.998V13H73.5762V5.40625H73.1543V13H72.7324V5.40625H72.3105V13H71.8887V5.40625H71.4668V13H71.0449V5.40625H69.3574Z" fill="black"/>
</g>
<defs>
<clipPath id="clip0_0_1">
<rect width="78" height="15" fill="white"/>
</clipPath>
</defs>
</svg>
