<svg width="48" height="15" viewBox="0 0 48 15" fill="none" xmlns="http://www.w3.org/2000/svg">
<g id="Frame 1" clip-path="url(#clip0_0_1)">
<rect width="48" height="15" fill="white"/>
<path id="A" d="M10.8262 3.29688H11.248V13H10.8262V3.29688ZM1.54492 3.29688H1.9668V13H1.54492V3.29688ZM9.98242 3.29688H10.4043V13H9.98242V3.29688ZM9.13867 3.29688H9.56055V13H9.13867V3.29688ZM8.29492 3.29688H8.7168V13H8.29492V9.19727H4.49805V13H4.07617V3.29688H4.49805V7.08789H8.29492V3.29688ZM3.23242 3.29688H3.6543V13H3.23242V3.29688ZM2.38867 3.29688H2.81055V13H2.38867V3.29688ZM8.29492 8.77539V8.35352H4.49805V8.77539H8.29492ZM8.29492 7.93164V7.50977H4.49805V7.93164H8.29492Z" fill="black"/>
<path id="O" d="M16.9609 6.50781C16.5078 6.96094 16.2812 7.50781 16.2812 8.14844C16.2812 8.78906 16.5078 9.33594 16.9609 9.78906C17.4141 10.2422 17.9609 10.4688 18.6016 10.4688C19.2422 10.4688 19.7891 10.2422 20.2422 9.78906C20.6953 9.33594 20.9219 8.78906 20.9219 8.14844C20.9219 7.50781 20.6953 6.96094 20.2422 6.50781C19.7891 6.05469 19.2422 5.82812 18.6016 5.82812C17.9609 5.82812 17.4141 6.05469 16.9609 6.50781ZM16.0762 9.21484C15.9316 8.875 15.8594 8.51953 15.8594 8.14844C15.8594 7.77734 15.9316 7.42383 16.0762 7.08789C16.2207 6.74805 16.416 6.45508 16.6621 6.20898C16.9082 5.96289 17.1992 5.76758 17.5352 5.62305C17.875 5.47852 18.2305 5.40625 18.6016 5.40625C18.9727 5.40625 19.3262 5.47852 19.6621 5.62305C20.002 5.76758 20.2949 5.96289 20.541 6.20898C20.7871 6.45508 20.9824 6.74805 21.127 7.08789C21.2715 7.42383 21.3438 7.77734 21.3438 8.14844C21.3438 8.51953 21.2715 8.875 21.127 9.21484C20.9824 9.55078 20.7871 9.8418 20.541 10.0879C20.2949 10.334 20.002 10.5293 19.6621 10.6738C19.3262 10.8184 18.9727 10.8906 18.6016 10.8906C18.2305 10.8906 17.875 10.8184 17.5352 10.6738C17.1992 10.5293 16.9082 10.334 16.6621 10.0879C16.416 9.8418 16.2207 9.55078 16.0762 9.21484ZM15.8594 6.56055C15.5781 7.04492 15.4375 7.57422 15.4375 8.14844C15.4375 8.72266 15.5781 9.25195 15.8594 9.73633C16.1445 10.2207 16.5293 10.6055 17.0137 10.8906C17.498 11.1719 18.0273 11.3125 18.6016 11.3125C19.1758 11.3125 19.7051 11.1719 20.1895 10.8906C20.6738 10.6055 21.0566 10.2207 21.3379 9.73633C21.623 9.25195 21.7656 8.72266 21.7656 8.14844C21.7656 7.57422 21.623 7.04492 21.3379 6.56055C21.0566 6.07617 20.6738 5.69336 20.1895 5.41211C19.7051 5.12695 19.1758 4.98438 18.6016 4.98438C18.0273 4.98438 17.498 5.12695 17.0137 5.41211C16.5293 5.69336 16.1445 6.07617 15.8594 6.56055ZM15.4961 9.94727C15.1758 9.39648 15.0156 8.79688 15.0156 8.14844C15.0156 7.5 15.1758 6.90039 15.4961 6.34961C15.8164 5.79883 16.252 5.36328 16.8027 5.04297C17.3535 4.72266 17.9531 4.5625 18.6016 4.5625C19.25 4.5625 19.8496 4.72266 20.4004 5.04297C20.9512 5.36328 21.3867 5.79883 21.707 6.34961C22.0273 6.90039 22.1875 7.5 22.1875 8.14844C22.1875 8.79688 22.0273 9.39648 21.707 9.94727C21.3867 10.498 20.9512 10.9336 20.4004 11.2539C19.8496 11.5742 19.25 11.7344 18.6016 11.7344C17.9531 11.7344 17.3535 11.5742 16.8027 11.2539C16.252 10.9336 15.8164 10.498 15.4961 9.94727ZM14.9102 6.58984C14.6992 7.08594 14.5938 7.60547 14.5938 8.14844C14.5938 8.69141 14.6992 9.21094 14.9102 9.70703C15.1211 10.2031 15.4043 10.6309 15.7598 10.9902C16.1191 11.3457 16.5469 11.6289 17.043 11.8398C17.5391 12.0508 18.0586 12.1562 18.6016 12.1562C19.1445 12.1562 19.6641 12.0508 20.1602 11.8398C20.6562 11.6289 21.082 11.3457 21.4375 10.9902C21.7969 10.6309 22.082 10.2031 22.293 9.70703C22.5039 9.21094 22.6094 8.69141 22.6094 8.14844C22.6094 7.60547 22.5039 7.08594 22.293 6.58984C22.082 6.09375 21.7969 5.66797 21.4375 5.3125C21.082 4.95312 20.6562 4.66797 20.1602 4.45703C19.6641 4.24609 19.1445 4.14062 18.6016 4.14062C18.0586 4.14062 17.5391 4.24609 17.043 4.45703C16.5469 4.66797 16.1191 4.95312 15.7598 5.3125C15.4043 5.66797 15.1211 6.09375 14.9102 6.58984ZM14.7637 10.3691C14.3691 9.68945 14.1719 8.94922 14.1719 8.14844C14.1719 7.34766 14.3691 6.60742 14.7637 5.92773C15.1621 5.24805 15.7012 4.71094 16.3809 4.31641C17.0605 3.91797 17.8008 3.71875 18.6016 3.71875C19.4023 3.71875 20.1426 3.91797 20.8223 4.31641C21.502 4.71094 22.0391 5.24805 22.4336 5.92773C22.832 6.60742 23.0312 7.34766 23.0312 8.14844C23.0312 8.94922 22.832 9.68945 22.4336 10.3691C22.0391 11.0488 21.502 11.5879 20.8223 11.9863C20.1426 12.3809 19.4023 12.5781 18.6016 12.5781C17.8008 12.5781 17.0605 12.3809 16.3809 11.9863C15.7012 11.5879 15.1621 11.0488 14.7637 10.3691ZM14.1309 6.26758C13.877 6.86523 13.75 7.49219 13.75 8.14844C13.75 8.80469 13.877 9.43359 14.1309 10.0352C14.3887 10.6328 14.7344 11.1484 15.168 11.582C15.6016 12.0156 16.1172 12.3613 16.7148 12.6191C17.3164 12.873 17.9453 13 18.6016 13C19.2578 13 19.8848 12.873 20.4824 12.6191C21.084 12.3613 21.6016 12.0156 22.0352 11.582C22.4688 11.1484 22.8125 10.6328 23.0664 10.0352C23.3242 9.43359 23.4531 8.80469 23.4531 8.14844C23.4531 7.49219 23.3242 6.86523 23.0664 6.26758C22.8125 5.66602 22.4688 5.14844 22.0352 4.71484C21.6016 4.28125 21.084 3.9375 20.4824 3.68359C19.8848 3.42578 19.2578 3.29688 18.6016 3.29688C17.9453 3.29688 17.3164 3.42578 16.7148 3.68359C16.1172 3.9375 15.6016 4.28125 15.168 4.71484C14.7344 5.14844 14.3887 5.66602 14.1309 6.26758ZM13.7441 10.1992C13.4668 9.54688 13.3281 8.86328 13.3281 8.14844C13.3281 7.43359 13.4668 6.75195 13.7441 6.10352C14.0254 5.45117 14.4004 4.89062 14.8691 4.42188C15.3418 3.94922 15.9023 3.57422 16.5508 3.29688C17.2031 3.01562 17.8867 2.875 18.6016 2.875C19.3164 2.875 19.998 3.01562 20.6465 3.29688C21.2988 3.57422 21.8594 3.94922 22.3281 4.42188C22.8008 4.89062 23.1758 5.45117 23.4531 6.10352C23.7344 6.75195 23.875 7.43359 23.875 8.14844C23.875 8.86328 23.7344 9.54688 23.4531 10.1992C23.1758 10.8477 22.8008 11.4082 22.3281 11.8809C21.8594 12.3496 21.2988 12.7227 20.6465 13C19.998 13.2812 19.3164 13.4219 18.6016 13.4219C17.8867 13.4219 17.2031 13.2812 16.5508 13C15.9023 12.7227 15.3418 12.3496 14.8691 11.8809C14.4004 11.4082 14.0254 10.8477 13.7441 10.1992Z" fill="black"/>
<path id="M" d="M32.5293 9.46094L32.9512 8.66406V13H32.5293V9.46094ZM33.373 7.84375L33.7949 7.04688V13H33.373V7.84375ZM34.2168 6.25L34.6387 5.44727V13H34.2168V6.25ZM31.3867 9.26172L31.1465 8.82227L34.0527 3.29688H34.5273L31.3867 9.26172ZM30.9004 8.3418L30.6543 7.89648L33.0918 3.29688H33.5723L30.9004 8.3418ZM28.0762 8.71094L28.498 9.50781V13H28.0762V8.71094ZM27.2324 7.10547L27.6543 7.90234V13H27.2324V7.10547ZM26.3887 5.5L26.8105 6.30273V13H26.3887V5.5ZM29.7988 10.4688H29.3242L25.9668 4.09961V13H25.5449V3.29688H26.0195L29.7988 10.4688ZM30.7539 10.4688H30.2734L26.5 3.29688H26.9805L30.7539 10.4688ZM35.0605 4.09961L31.7031 10.4688H31.2227L27.4551 3.29688H27.9297L31.4688 10.0234L35.002 3.29688H35.4824V13H35.0605V4.09961Z" fill="black"/>
<path id="E" d="M39.6543 13H39.2324V3.29688H39.6543V13ZM38.8105 13H38.3887V3.29688H38.8105V13ZM37.9668 13H37.5449V3.29688H37.9668V13ZM40.498 10.8906H44.9863V11.3125H40.498V11.7344H44.9863V12.1562H40.498V12.5781H44.9863V13H40.0762V3.29688H44.9863V3.71875H40.498V4.14062H44.9863V4.5625H40.498V4.98438H44.9863V5.40625H40.498V7.09375H42.8008V7.51562H40.498V7.9375H42.8008V8.35938H40.498V8.78125H42.8008V9.20312H40.498V10.8906Z" fill="black"/>
</g>
<defs>
<clipPath id="clip0_0_1">
<rect width="48" height="15" fill="white"/>
</clipPath>
</defs>
</svg>
