<svg width="98" height="16" viewBox="0 0 98 16" fill="none" xmlns="http://www.w3.org/2000/svg">
<g id="Frame 1" clip-path="url(#clip0_0_1)">
<rect width="98" height="16" fill="white"/>
<path id="A" d="M4.82617 8.40625H7.27539C7.67773 8.40625 8.01758 8.27148 8.29492 8.00195C8.57617 7.72852 8.7168 7.34375 8.7168 6.84766C8.7168 6.47656 8.57031 6.14453 8.27734 5.85156C7.98438 5.55469 7.65039 5.40625 7.27539 5.40625H3.6543V13H3.23242V4.98438H7.27539C7.76758 4.98438 8.20117 5.17383 8.57617 5.55273C8.95117 5.93164 9.13867 6.36328 9.13867 6.84766C9.13867 7.44531 8.95703 7.92578 8.59375 8.28906C8.23047 8.64844 7.79102 8.82812 7.27539 8.82812H4.82617V8.40625ZM4.82617 9.25H7.27539C7.68164 9.25 8.05664 9.15234 8.40039 8.95703C8.74805 8.75781 9.02734 8.47266 9.23828 8.10156C9.45312 7.73047 9.56055 7.3125 9.56055 6.84766C9.56055 6.24609 9.33008 5.71484 8.86914 5.25391C8.41211 4.79297 7.88086 4.5625 7.27539 4.5625H2.81055V13H2.38867V4.14062H7.27539C7.74805 4.14062 8.19336 4.26562 8.61133 4.51562C9.0293 4.76562 9.36133 5.09961 9.60742 5.51758C9.85742 5.93555 9.98242 6.37891 9.98242 6.84766C9.98242 7.37891 9.85742 7.86328 9.60742 8.30078C9.35742 8.73438 9.02539 9.07227 8.61133 9.31445C8.20117 9.55273 7.75586 9.67188 7.27539 9.67188H4.82617V9.25ZM4.82617 10.0938H7.27539C7.69336 10.0938 8.09375 10.0117 8.47656 9.84766C8.85938 9.67969 9.19141 9.45508 9.47266 9.17383C9.75781 8.88867 9.98438 8.54492 10.1523 8.14258C10.3203 7.73633 10.4043 7.30469 10.4043 6.84766C10.4043 6.30078 10.2617 5.78711 9.97656 5.30664C9.69141 4.82227 9.30664 4.4375 8.82227 4.15234C8.3418 3.86328 7.82617 3.71875 7.27539 3.71875H1.9668V13H1.54492V3.29688H7.27539C7.90039 3.29688 8.48633 3.46094 9.0332 3.78906C9.58008 4.11328 10.0156 4.54883 10.3398 5.0957C10.6641 5.64258 10.8262 6.22656 10.8262 6.84766C10.8262 7.40234 10.7305 7.91406 10.5391 8.38281C10.3477 8.84766 10.0898 9.23438 9.76562 9.54297C9.44141 9.85156 9.06445 10.0918 8.63477 10.2637C8.20508 10.4316 7.75195 10.5156 7.27539 10.5156H4.82617V10.0938ZM4.49805 13H4.07617V5.82812H7.27539C7.55273 5.82812 7.79102 5.92969 7.99023 6.13281C8.19336 6.33594 8.29492 6.57422 8.29492 6.84766C8.29492 7.60547 7.95508 7.98438 7.27539 7.98438H4.82617V7.5625H7.27539C7.46289 7.5625 7.60938 7.50977 7.71484 7.4043C7.82031 7.29883 7.87305 7.11328 7.87305 6.84766C7.87305 6.67578 7.81445 6.5332 7.69727 6.41992C7.58398 6.30664 7.44336 6.25 7.27539 6.25H4.49805V13Z" fill="black"/>
<path id="O" d="M16.9609 6.50781C16.5078 6.96094 16.2812 7.50781 16.2812 8.14844C16.2812 8.78906 16.5078 9.33594 16.9609 9.78906C17.4141 10.2422 17.9609 10.4688 18.6016 10.4688C19.2422 10.4688 19.7891 10.2422 20.2422 9.78906C20.6953 9.33594 20.9219 8.78906 20.9219 8.14844C20.9219 7.50781 20.6953 6.96094 20.2422 6.50781C19.7891 6.05469 19.2422 5.82812 18.6016 5.82812C17.9609 5.82812 17.4141 6.05469 16.9609 6.50781ZM16.0762 9.21484C15.9316 8.875 15.8594 8.51953 15.8594 8.14844C15.8594 7.77734 15.9316 7.42383 16.0762 7.08789C16.2207 6.74805 16.416 6.45508 16.6621 6.20898C16.9082 5.96289 17.1992 5.76758 17.5352 5.62305C17.875 5.47852 18.2305 5.40625 18.6016 5.40625C18.9727 5.40625 19.3262 5.47852 19.6621 5.62305C20.002 5.76758 20.2949 5.96289 20.541 6.20898C20.7871 6.45508 20.9824 6.74805 21.127 7.08789C21.2715 7.42383 21.3438 7.77734 21.3438 8.14844C21.3438 8.51953 21.2715 8.875 21.127 9.21484C20.9824 9.55078 20.7871 9.8418 20.541 10.0879C20.2949 10.334 20.002 10.5293 19.6621 10.6738C19.3262 10.8184 18.9727 10.8906 18.6016 10.8906C18.2305 10.8906 17.875 10.8184 17.5352 10.6738C17.1992 10.5293 16.9082 10.334 16.6621 10.0879C16.416 9.8418 16.2207 9.55078 16.0762 9.21484ZM15.8594 6.56055C15.5781 7.04492 15.4375 7.57422 15.4375 8.14844C15.4375 8.72266 15.5781 9.25195 15.8594 9.73633C16.1445 10.2207 16.5293 10.6055 17.0137 10.8906C17.498 11.1719 18.0273 11.3125 18.6016 11.3125C19.1758 11.3125 19.7051 11.1719 20.1895 10.8906C20.6738 10.6055 21.0566 10.2207 21.3379 9.73633C21.623 9.25195 21.7656 8.72266 21.7656 8.14844C21.7656 7.57422 21.623 7.04492 21.3379 6.56055C21.0566 6.07617 20.6738 5.69336 20.1895 5.41211C19.7051 5.12695 19.1758 4.98438 18.6016 4.98438C18.0273 4.98438 17.498 5.12695 17.0137 5.41211C16.5293 5.69336 16.1445 6.07617 15.8594 6.56055ZM15.4961 9.94727C15.1758 9.39648 15.0156 8.79688 15.0156 8.14844C15.0156 7.5 15.1758 6.90039 15.4961 6.34961C15.8164 5.79883 16.252 5.36328 16.8027 5.04297C17.3535 4.72266 17.9531 4.5625 18.6016 4.5625C19.25 4.5625 19.8496 4.72266 20.4004 5.04297C20.9512 5.36328 21.3867 5.79883 21.707 6.34961C22.0273 6.90039 22.1875 7.5 22.1875 8.14844C22.1875 8.79688 22.0273 9.39648 21.707 9.94727C21.3867 10.498 20.9512 10.9336 20.4004 11.2539C19.8496 11.5742 19.25 11.7344 18.6016 11.7344C17.9531 11.7344 17.3535 11.5742 16.8027 11.2539C16.252 10.9336 15.8164 10.498 15.4961 9.94727ZM14.9102 6.58984C14.6992 7.08594 14.5938 7.60547 14.5938 8.14844C14.5938 8.69141 14.6992 9.21094 14.9102 9.70703C15.1211 10.2031 15.4043 10.6309 15.7598 10.9902C16.1191 11.3457 16.5469 11.6289 17.043 11.8398C17.5391 12.0508 18.0586 12.1562 18.6016 12.1562C19.1445 12.1562 19.6641 12.0508 20.1602 11.8398C20.6562 11.6289 21.082 11.3457 21.4375 10.9902C21.7969 10.6309 22.082 10.2031 22.293 9.70703C22.5039 9.21094 22.6094 8.69141 22.6094 8.14844C22.6094 7.60547 22.5039 7.08594 22.293 6.58984C22.082 6.09375 21.7969 5.66797 21.4375 5.3125C21.082 4.95312 20.6562 4.66797 20.1602 4.45703C19.6641 4.24609 19.1445 4.14062 18.6016 4.14062C18.0586 4.14062 17.5391 4.24609 17.043 4.45703C16.5469 4.66797 16.1191 4.95312 15.7598 5.3125C15.4043 5.66797 15.1211 6.09375 14.9102 6.58984ZM14.7637 10.3691C14.3691 9.68945 14.1719 8.94922 14.1719 8.14844C14.1719 7.34766 14.3691 6.60742 14.7637 5.92773C15.1621 5.24805 15.7012 4.71094 16.3809 4.31641C17.0605 3.91797 17.8008 3.71875 18.6016 3.71875C19.4023 3.71875 20.1426 3.91797 20.8223 4.31641C21.502 4.71094 22.0391 5.24805 22.4336 5.92773C22.832 6.60742 23.0312 7.34766 23.0312 8.14844C23.0312 8.94922 22.832 9.68945 22.4336 10.3691C22.0391 11.0488 21.502 11.5879 20.8223 11.9863C20.1426 12.3809 19.4023 12.5781 18.6016 12.5781C17.8008 12.5781 17.0605 12.3809 16.3809 11.9863C15.7012 11.5879 15.1621 11.0488 14.7637 10.3691ZM14.1309 6.26758C13.877 6.86523 13.75 7.49219 13.75 8.14844C13.75 8.80469 13.877 9.43359 14.1309 10.0352C14.3887 10.6328 14.7344 11.1484 15.168 11.582C15.6016 12.0156 16.1172 12.3613 16.7148 12.6191C17.3164 12.873 17.9453 13 18.6016 13C19.2578 13 19.8848 12.873 20.4824 12.6191C21.084 12.3613 21.6016 12.0156 22.0352 11.582C22.4688 11.1484 22.8125 10.6328 23.0664 10.0352C23.3242 9.43359 23.4531 8.80469 23.4531 8.14844C23.4531 7.49219 23.3242 6.86523 23.0664 6.26758C22.8125 5.66602 22.4688 5.14844 22.0352 4.71484C21.6016 4.28125 21.084 3.9375 20.4824 3.68359C19.8848 3.42578 19.2578 3.29688 18.6016 3.29688C17.9453 3.29688 17.3164 3.42578 16.7148 3.68359C16.1172 3.9375 15.6016 4.28125 15.168 4.71484C14.7344 5.14844 14.3887 5.66602 14.1309 6.26758ZM13.7441 10.1992C13.4668 9.54688 13.3281 8.86328 13.3281 8.14844C13.3281 7.43359 13.4668 6.75195 13.7441 6.10352C14.0254 5.45117 14.4004 4.89062 14.8691 4.42188C15.3418 3.94922 15.9023 3.57422 16.5508 3.29688C17.2031 3.01562 17.8867 2.875 18.6016 2.875C19.3164 2.875 19.998 3.01562 20.6465 3.29688C21.2988 3.57422 21.8594 3.94922 22.3281 4.42188C22.8008 4.89062 23.1758 5.45117 23.4531 6.10352C23.7344 6.75195 23.875 7.43359 23.875 8.14844C23.875 8.86328 23.7344 9.54688 23.4531 10.1992C23.1758 10.8477 22.8008 11.4082 22.3281 11.8809C21.8594 12.3496 21.2988 12.7227 20.6465 13C19.998 13.2812 19.3164 13.4219 18.6016 13.4219C17.8867 13.4219 17.2031 13.2812 16.5508 13C15.9023 12.7227 15.3418 12.3496 14.8691 11.8809C14.4004 11.4082 14.0254 10.8477 13.7441 10.1992Z" fill="black"/>
<path id="R" d="M29.7324 8.17188H32.2754C32.6621 8.17188 32.9883 8.04688 33.2539 7.79688C33.5234 7.54688 33.6582 7.19141 33.6582 6.73047C33.6582 6.39062 33.5176 6.08594 33.2363 5.81641C32.9551 5.54297 32.6348 5.40625 32.2754 5.40625H28.6543V13H28.2324V4.98438H32.2754C32.752 4.98438 33.1719 5.16211 33.5352 5.51758C33.8984 5.86914 34.0801 6.27344 34.0801 6.73047C34.0801 7.29297 33.9043 7.74414 33.5527 8.08398C33.2012 8.42383 32.7754 8.59375 32.2754 8.59375H29.7324V8.17188ZM29.7324 9.01562H32.2754C32.8848 9.01562 33.4082 8.80273 33.8457 8.37695C34.2832 7.94727 34.502 7.39844 34.502 6.73047C34.502 6.15625 34.2773 5.65234 33.8281 5.21875C33.3828 4.78125 32.8652 4.5625 32.2754 4.5625H27.8105V13H27.3887V4.14062H32.2754C32.7402 4.14062 33.1758 4.25977 33.582 4.49805C33.9922 4.73633 34.3184 5.05664 34.5605 5.45898C34.8027 5.85742 34.9238 6.28125 34.9238 6.73047C34.9238 7.5 34.6621 8.14453 34.1387 8.66406C33.6191 9.17969 32.998 9.4375 32.2754 9.4375H29.7324V9.01562ZM29.7324 9.85938H32.2754C32.8223 9.85938 33.3301 9.72461 33.7988 9.45508C34.2676 9.18555 34.6426 8.81055 34.9238 8.33008C35.2051 7.8457 35.3457 7.3125 35.3457 6.73047C35.3457 6.20312 35.2051 5.70898 34.9238 5.24805C34.6465 4.7832 34.2715 4.41211 33.7988 4.13477C33.3262 3.85742 32.8184 3.71875 32.2754 3.71875H26.9668V13H26.5449V3.29688H32.2754C32.8887 3.29688 33.4648 3.45508 34.0039 3.77148C34.543 4.08398 34.9707 4.50586 35.2871 5.03711C35.6074 5.56445 35.7676 6.12891 35.7676 6.73047C35.7676 7.42578 35.6172 8.03711 35.3164 8.56445C35.0195 9.0918 34.6152 9.50391 34.1035 9.80078L35.1934 13H34.748L33.7051 10C33.5488 10.0625 33.4297 10.1055 33.3477 10.1289L34.3262 13H33.8809L32.9258 10.2285C32.8906 10.2363 32.7656 10.25 32.5508 10.2695L33.459 13H33.0137L32.1172 10.2812H31.7363L32.5918 13H32.1465L31.2852 10.2812H29.7324V9.85938ZM29.498 13H29.0762V5.82812H32.2754C32.5371 5.82812 32.7617 5.91797 32.9492 6.09766C33.1406 6.27344 33.2363 6.48438 33.2363 6.73047C33.2363 7.41016 32.916 7.75 32.2754 7.75H29.7324V7.32812H32.2754C32.4434 7.32812 32.5742 7.28516 32.668 7.19922C32.7656 7.10938 32.8145 6.95312 32.8145 6.73047C32.8145 6.59375 32.7617 6.48047 32.6562 6.39062C32.5547 6.29688 32.4277 6.25 32.2754 6.25H29.498V13Z" fill="black"/>
<path id="T" d="M38.3574 3.71875V3.29688H44.6855V3.71875H38.3574ZM38.3574 4.5625V4.14062H44.6855V4.5625H38.3574ZM38.3574 5.40625V4.98438H44.6855V5.40625H42.998V13H42.5762V5.40625H42.1543V13H41.7324V5.40625H41.3105V13H40.8887V5.40625H40.4668V13H40.0449V5.40625H38.3574Z" fill="black"/>
<path id="F" d="M50.498 13H50.0762V3.29688H54.7461V3.71875H50.498V4.14062H54.7461V4.5625H50.498V4.98438H54.7461V5.40625H50.498V7.51562H54.5469V7.9375H50.498V8.35938H54.5469V8.78125H50.498V9.20312H54.5469V9.625H50.498V13ZM49.6543 13H49.2324V3.29688H49.6543V13ZM48.8105 13H48.3887V3.29688H48.8105V13ZM47.9668 13H47.5449V3.29688H47.9668V13Z" fill="black"/>
<path id="O_2" d="M59.9609 6.50781C59.5078 6.96094 59.2812 7.50781 59.2812 8.14844C59.2812 8.78906 59.5078 9.33594 59.9609 9.78906C60.4141 10.2422 60.9609 10.4688 61.6016 10.4688C62.2422 10.4688 62.7891 10.2422 63.2422 9.78906C63.6953 9.33594 63.9219 8.78906 63.9219 8.14844C63.9219 7.50781 63.6953 6.96094 63.2422 6.50781C62.7891 6.05469 62.2422 5.82812 61.6016 5.82812C60.9609 5.82812 60.4141 6.05469 59.9609 6.50781ZM59.0762 9.21484C58.9316 8.875 58.8594 8.51953 58.8594 8.14844C58.8594 7.77734 58.9316 7.42383 59.0762 7.08789C59.2207 6.74805 59.416 6.45508 59.6621 6.20898C59.9082 5.96289 60.1992 5.76758 60.5352 5.62305C60.875 5.47852 61.2305 5.40625 61.6016 5.40625C61.9727 5.40625 62.3262 5.47852 62.6621 5.62305C63.002 5.76758 63.2949 5.96289 63.541 6.20898C63.7871 6.45508 63.9824 6.74805 64.127 7.08789C64.2715 7.42383 64.3438 7.77734 64.3438 8.14844C64.3438 8.51953 64.2715 8.875 64.127 9.21484C63.9824 9.55078 63.7871 9.8418 63.541 10.0879C63.2949 10.334 63.002 10.5293 62.6621 10.6738C62.3262 10.8184 61.9727 10.8906 61.6016 10.8906C61.2305 10.8906 60.875 10.8184 60.5352 10.6738C60.1992 10.5293 59.9082 10.334 59.6621 10.0879C59.416 9.8418 59.2207 9.55078 59.0762 9.21484ZM58.8594 6.56055C58.5781 7.04492 58.4375 7.57422 58.4375 8.14844C58.4375 8.72266 58.5781 9.25195 58.8594 9.73633C59.1445 10.2207 59.5293 10.6055 60.0137 10.8906C60.498 11.1719 61.0273 11.3125 61.6016 11.3125C62.1758 11.3125 62.7051 11.1719 63.1895 10.8906C63.6738 10.6055 64.0566 10.2207 64.3379 9.73633C64.623 9.25195 64.7656 8.72266 64.7656 8.14844C64.7656 7.57422 64.623 7.04492 64.3379 6.56055C64.0566 6.07617 63.6738 5.69336 63.1895 5.41211C62.7051 5.12695 62.1758 4.98438 61.6016 4.98438C61.0273 4.98438 60.498 5.12695 60.0137 5.41211C59.5293 5.69336 59.1445 6.07617 58.8594 6.56055ZM58.4961 9.94727C58.1758 9.39648 58.0156 8.79688 58.0156 8.14844C58.0156 7.5 58.1758 6.90039 58.4961 6.34961C58.8164 5.79883 59.252 5.36328 59.8027 5.04297C60.3535 4.72266 60.9531 4.5625 61.6016 4.5625C62.25 4.5625 62.8496 4.72266 63.4004 5.04297C63.9512 5.36328 64.3867 5.79883 64.707 6.34961C65.0273 6.90039 65.1875 7.5 65.1875 8.14844C65.1875 8.79688 65.0273 9.39648 64.707 9.94727C64.3867 10.498 63.9512 10.9336 63.4004 11.2539C62.8496 11.5742 62.25 11.7344 61.6016 11.7344C60.9531 11.7344 60.3535 11.5742 59.8027 11.2539C59.252 10.9336 58.8164 10.498 58.4961 9.94727ZM57.9102 6.58984C57.6992 7.08594 57.5938 7.60547 57.5938 8.14844C57.5938 8.69141 57.6992 9.21094 57.9102 9.70703C58.1211 10.2031 58.4043 10.6309 58.7598 10.9902C59.1191 11.3457 59.5469 11.6289 60.043 11.8398C60.5391 12.0508 61.0586 12.1562 61.6016 12.1562C62.1445 12.1562 62.6641 12.0508 63.1602 11.8398C63.6562 11.6289 64.082 11.3457 64.4375 10.9902C64.7969 10.6309 65.082 10.2031 65.293 9.70703C65.5039 9.21094 65.6094 8.69141 65.6094 8.14844C65.6094 7.60547 65.5039 7.08594 65.293 6.58984C65.082 6.09375 64.7969 5.66797 64.4375 5.3125C64.082 4.95312 63.6562 4.66797 63.1602 4.45703C62.6641 4.24609 62.1445 4.14062 61.6016 4.14062C61.0586 4.14062 60.5391 4.24609 60.043 4.45703C59.5469 4.66797 59.1191 4.95312 58.7598 5.3125C58.4043 5.66797 58.1211 6.09375 57.9102 6.58984ZM57.7637 10.3691C57.3691 9.68945 57.1719 8.94922 57.1719 8.14844C57.1719 7.34766 57.3691 6.60742 57.7637 5.92773C58.1621 5.24805 58.7012 4.71094 59.3809 4.31641C60.0605 3.91797 60.8008 3.71875 61.6016 3.71875C62.4023 3.71875 63.1426 3.91797 63.8223 4.31641C64.502 4.71094 65.0391 5.24805 65.4336 5.92773C65.832 6.60742 66.0312 7.34766 66.0312 8.14844C66.0312 8.94922 65.832 9.68945 65.4336 10.3691C65.0391 11.0488 64.502 11.5879 63.8223 11.9863C63.1426 12.3809 62.4023 12.5781 61.6016 12.5781C60.8008 12.5781 60.0605 12.3809 59.3809 11.9863C58.7012 11.5879 58.1621 11.0488 57.7637 10.3691ZM57.1309 6.26758C56.877 6.86523 56.75 7.49219 56.75 8.14844C56.75 8.80469 56.877 9.43359 57.1309 10.0352C57.3887 10.6328 57.7344 11.1484 58.168 11.582C58.6016 12.0156 59.1172 12.3613 59.7148 12.6191C60.3164 12.873 60.9453 13 61.6016 13C62.2578 13 62.8848 12.873 63.4824 12.6191C64.084 12.3613 64.6016 12.0156 65.0352 11.582C65.4688 11.1484 65.8125 10.6328 66.0664 10.0352C66.3242 9.43359 66.4531 8.80469 66.4531 8.14844C66.4531 7.49219 66.3242 6.86523 66.0664 6.26758C65.8125 5.66602 65.4688 5.14844 65.0352 4.71484C64.6016 4.28125 64.084 3.9375 63.4824 3.68359C62.8848 3.42578 62.2578 3.29688 61.6016 3.29688C60.9453 3.29688 60.3164 3.42578 59.7148 3.68359C59.1172 3.9375 58.6016 4.28125 58.168 4.71484C57.7344 5.14844 57.3887 5.66602 57.1309 6.26758ZM56.7441 10.1992C56.4668 9.54688 56.3281 8.86328 56.3281 8.14844C56.3281 7.43359 56.4668 6.75195 56.7441 6.10352C57.0254 5.45117 57.4004 4.89062 57.8691 4.42188C58.3418 3.94922 58.9023 3.57422 59.5508 3.29688C60.2031 3.01562 60.8867 2.875 61.6016 2.875C62.3164 2.875 62.998 3.01562 63.6465 3.29688C64.2988 3.57422 64.8594 3.94922 65.3281 4.42188C65.8008 4.89062 66.1758 5.45117 66.4531 6.10352C66.7344 6.75195 66.875 7.43359 66.875 8.14844C66.875 8.86328 66.7344 9.54688 66.4531 10.1992C66.1758 10.8477 65.8008 11.4082 65.3281 11.8809C64.8594 12.3496 64.2988 12.7227 63.6465 13C62.998 13.2812 62.3164 13.4219 61.6016 13.4219C60.8867 13.4219 60.2031 13.2812 59.5508 13C58.9023 12.7227 58.3418 12.3496 57.8691 11.8809C57.4004 11.4082 57.0254 10.8477 56.7441 10.1992Z" fill="black"/>
<path id="L" d="M69.5449 3.29688H69.9668V13H69.5449V3.29688ZM72.0762 3.29688H72.498V10.8906H75.873V11.3125H72.498V11.7344H75.873V12.1562H72.498V12.5781H75.873V13H72.0762V3.29688ZM71.2324 3.29688H71.6543V13H71.2324V3.29688ZM70.3887 3.29688H70.8105V13H70.3887V3.29688Z" fill="black"/>
<path id="I" d="M82.0762 3.29688H82.498V13H82.0762V3.29688ZM81.2324 3.29688H81.6543V13H81.2324V3.29688ZM80.3887 3.29688H80.8105V13H80.3887V3.29688ZM79.5449 3.29688H79.9668V13H79.5449V3.29688Z" fill="black"/>
<path id="O_3" d="M88.9609 6.50781C88.5078 6.96094 88.2812 7.50781 88.2812 8.14844C88.2812 8.78906 88.5078 9.33594 88.9609 9.78906C89.4141 10.2422 89.9609 10.4688 90.6016 10.4688C91.2422 10.4688 91.7891 10.2422 92.2422 9.78906C92.6953 9.33594 92.9219 8.78906 92.9219 8.14844C92.9219 7.50781 92.6953 6.96094 92.2422 6.50781C91.7891 6.05469 91.2422 5.82812 90.6016 5.82812C89.9609 5.82812 89.4141 6.05469 88.9609 6.50781ZM88.0762 9.21484C87.9316 8.875 87.8594 8.51953 87.8594 8.14844C87.8594 7.77734 87.9316 7.42383 88.0762 7.08789C88.2207 6.74805 88.416 6.45508 88.6621 6.20898C88.9082 5.96289 89.1992 5.76758 89.5352 5.62305C89.875 5.47852 90.2305 5.40625 90.6016 5.40625C90.9727 5.40625 91.3262 5.47852 91.6621 5.62305C92.002 5.76758 92.2949 5.96289 92.541 6.20898C92.7871 6.45508 92.9824 6.74805 93.127 7.08789C93.2715 7.42383 93.3438 7.77734 93.3438 8.14844C93.3438 8.51953 93.2715 8.875 93.127 9.21484C92.9824 9.55078 92.7871 9.8418 92.541 10.0879C92.2949 10.334 92.002 10.5293 91.6621 10.6738C91.3262 10.8184 90.9727 10.8906 90.6016 10.8906C90.2305 10.8906 89.875 10.8184 89.5352 10.6738C89.1992 10.5293 88.9082 10.334 88.6621 10.0879C88.416 9.8418 88.2207 9.55078 88.0762 9.21484ZM87.8594 6.56055C87.5781 7.04492 87.4375 7.57422 87.4375 8.14844C87.4375 8.72266 87.5781 9.25195 87.8594 9.73633C88.1445 10.2207 88.5293 10.6055 89.0137 10.8906C89.498 11.1719 90.0273 11.3125 90.6016 11.3125C91.1758 11.3125 91.7051 11.1719 92.1895 10.8906C92.6738 10.6055 93.0566 10.2207 93.3379 9.73633C93.623 9.25195 93.7656 8.72266 93.7656 8.14844C93.7656 7.57422 93.623 7.04492 93.3379 6.56055C93.0566 6.07617 92.6738 5.69336 92.1895 5.41211C91.7051 5.12695 91.1758 4.98438 90.6016 4.98438C90.0273 4.98438 89.498 5.12695 89.0137 5.41211C88.5293 5.69336 88.1445 6.07617 87.8594 6.56055ZM87.4961 9.94727C87.1758 9.39648 87.0156 8.79688 87.0156 8.14844C87.0156 7.5 87.1758 6.90039 87.4961 6.34961C87.8164 5.79883 88.252 5.36328 88.8027 5.04297C89.3535 4.72266 89.9531 4.5625 90.6016 4.5625C91.25 4.5625 91.8496 4.72266 92.4004 5.04297C92.9512 5.36328 93.3867 5.79883 93.707 6.34961C94.0273 6.90039 94.1875 7.5 94.1875 8.14844C94.1875 8.79688 94.0273 9.39648 93.707 9.94727C93.3867 10.498 92.9512 10.9336 92.4004 11.2539C91.8496 11.5742 91.25 11.7344 90.6016 11.7344C89.9531 11.7344 89.3535 11.5742 88.8027 11.2539C88.252 10.9336 87.8164 10.498 87.4961 9.94727ZM86.9102 6.58984C86.6992 7.08594 86.5938 7.60547 86.5938 8.14844C86.5938 8.69141 86.6992 9.21094 86.9102 9.70703C87.1211 10.2031 87.4043 10.6309 87.7598 10.9902C88.1191 11.3457 88.5469 11.6289 89.043 11.8398C89.5391 12.0508 90.0586 12.1562 90.6016 12.1562C91.1445 12.1562 91.6641 12.0508 92.1602 11.8398C92.6562 11.6289 93.082 11.3457 93.4375 10.9902C93.7969 10.6309 94.082 10.2031 94.293 9.70703C94.5039 9.21094 94.6094 8.69141 94.6094 8.14844C94.6094 7.60547 94.5039 7.08594 94.293 6.58984C94.082 6.09375 93.7969 5.66797 93.4375 5.3125C93.082 4.95312 92.6562 4.66797 92.1602 4.45703C91.6641 4.24609 91.1445 4.14062 90.6016 4.14062C90.0586 4.14062 89.5391 4.24609 89.043 4.45703C88.5469 4.66797 88.1191 4.95312 87.7598 5.3125C87.4043 5.66797 87.1211 6.09375 86.9102 6.58984ZM86.7637 10.3691C86.3691 9.68945 86.1719 8.94922 86.1719 8.14844C86.1719 7.34766 86.3691 6.60742 86.7637 5.92773C87.1621 5.24805 87.7012 4.71094 88.3809 4.31641C89.0605 3.91797 89.8008 3.71875 90.6016 3.71875C91.4023 3.71875 92.1426 3.91797 92.8223 4.31641C93.502 4.71094 94.0391 5.24805 94.4336 5.92773C94.832 6.60742 95.0312 7.34766 95.0312 8.14844C95.0312 8.94922 94.832 9.68945 94.4336 10.3691C94.0391 11.0488 93.502 11.5879 92.8223 11.9863C92.1426 12.3809 91.4023 12.5781 90.6016 12.5781C89.8008 12.5781 89.0605 12.3809 88.3809 11.9863C87.7012 11.5879 87.1621 11.0488 86.7637 10.3691ZM86.1309 6.26758C85.877 6.86523 85.75 7.49219 85.75 8.14844C85.75 8.80469 85.877 9.43359 86.1309 10.0352C86.3887 10.6328 86.7344 11.1484 87.168 11.582C87.6016 12.0156 88.1172 12.3613 88.7148 12.6191C89.3164 12.873 89.9453 13 90.6016 13C91.2578 13 91.8848 12.873 92.4824 12.6191C93.084 12.3613 93.6016 12.0156 94.0352 11.582C94.4688 11.1484 94.8125 10.6328 95.0664 10.0352C95.3242 9.43359 95.4531 8.80469 95.4531 8.14844C95.4531 7.49219 95.3242 6.86523 95.0664 6.26758C94.8125 5.66602 94.4688 5.14844 94.0352 4.71484C93.6016 4.28125 93.084 3.9375 92.4824 3.68359C91.8848 3.42578 91.2578 3.29688 90.6016 3.29688C89.9453 3.29688 89.3164 3.42578 88.7148 3.68359C88.1172 3.9375 87.6016 4.28125 87.168 4.71484C86.7344 5.14844 86.3887 5.66602 86.1309 6.26758ZM85.7441 10.1992C85.4668 9.54688 85.3281 8.86328 85.3281 8.14844C85.3281 7.43359 85.4668 6.75195 85.7441 6.10352C86.0254 5.45117 86.4004 4.89062 86.8691 4.42188C87.3418 3.94922 87.9023 3.57422 88.5508 3.29688C89.2031 3.01562 89.8867 2.875 90.6016 2.875C91.3164 2.875 91.998 3.01562 92.6465 3.29688C93.2988 3.57422 93.8594 3.94922 94.3281 4.42188C94.8008 4.89062 95.1758 5.45117 95.4531 6.10352C95.7344 6.75195 95.875 7.43359 95.875 8.14844C95.875 8.86328 95.7344 9.54688 95.4531 10.1992C95.1758 10.8477 94.8008 11.4082 94.3281 11.8809C93.8594 12.3496 93.2988 12.7227 92.6465 13C91.998 13.2812 91.3164 13.4219 90.6016 13.4219C89.8867 13.4219 89.2031 13.2812 88.5508 13C87.9023 12.7227 87.3418 12.3496 86.8691 11.8809C86.4004 11.4082 86.0254 10.8477 85.7441 10.1992Z" fill="black"/>
</g>
<defs>
<clipPath id="clip0_0_1">
<rect width="98" height="16" fill="white"/>
</clipPath>
</defs>
</svg>
